HIERARCHY
ROOT Hips
{
	OFFSET 0.000000 0.000000 0.000000
	CHANNELS 6 Xposition Yposition Zposition Zrotation Yrotation Xrotation 
	JOINT LHipJoint
	{
		OFFSET 0.000000 0.000000 0.000000
		CHANNELS 3 Zrotation Yrotation Xrotation
		JOINT LeftUpLeg
		{
			OFFSET 1.363060 -1.794630 0.839290
			CHANNELS 3 Zrotation Yrotation Xrotation
			JOINT LeftLeg
			{
				OFFSET 2.448110 -6.726130 0.000000
				CHANNELS 3 Zrotation Yrotation Xrotation
				JOINT LeftFoot
				{
					OFFSET 2.562200 -7.039590 0.000000
					CHANNELS 3 Zrotation Yrotation Xrotation
					JOINT LeftToeBase
					{
						OFFSET 0.157640 -0.433110 2.322550
						CHANNELS 3 Zrotation Yrotation Xrotation
						End Site
						{
							OFFSET 0.000000 0.000000 0.000000
						}
					}
				}
			}
		}
	}
	JOINT RHipJoint
	{
		OFFSET 0.000000 0.000000 0.000000
		CHANNELS 3 Zrotation Yrotation Xrotation
		JOINT RightUpLeg
		{
			OFFSET -1.305520 -1.794630 0.839290
			CHANNELS 3 Zrotation Yrotation Xrotation
			JOINT RightLeg
			{
				OFFSET -2.542530 -6.985550 0.000000
				CHANNELS 3 Zrotation Yrotation Xrotation
				JOINT RightFoot
				{
					OFFSET -2.568260 -7.056230 0.000000
					CHANNELS 3 Zrotation Yrotation Xrotation
					JOINT RightToeBase
					{
						OFFSET -0.164730 -0.452590 2.363150
						CHANNELS 3 Zrotation Yrotation Xrotation
						End Site
						{
							OFFSET 0.000000 0.000000 0.000000
						}
					}
				}
			}
		}
	}
	JOINT LowerBack
	{
		OFFSET 0.000000 0.000000 0.000000
		CHANNELS 3 Zrotation Yrotation Xrotation
		JOINT Spine
		{
			OFFSET 0.028270 2.035590 -0.193380
			CHANNELS 3 Zrotation Yrotation Xrotation
			JOINT Spine1
			{
				OFFSET 0.056720 2.048850 -0.042750
				CHANNELS 3 Zrotation Yrotation Xrotation
				JOINT Neck
				{
					OFFSET 0.000000 0.000000 0.000000
					CHANNELS 3 Zrotation Yrotation Xrotation
					JOINT Neck1
					{
						OFFSET -0.054170 1.746240 0.172020
						CHANNELS 3 Zrotation Yrotation Xrotation
						JOINT Head
						{
							OFFSET 0.104070 1.761360 -0.123970
							CHANNELS 3 Zrotation Yrotation Xrotation
							End Site
							{
								OFFSET 0.000000 0.000000 0.000000
							}
						}
					}
				}
				JOINT LeftShoulder
				{
					OFFSET 0.000000 0.000000 0.000000
					CHANNELS 3 Zrotation Yrotation Xrotation
					JOINT LeftArm
					{
						OFFSET 3.362410 1.200890 -0.311210
						CHANNELS 3 Zrotation Yrotation Xrotation
						JOINT LeftForeArm
						{
							OFFSET 4.983000 -0.000000 -0.000000
							CHANNELS 3 Zrotation Yrotation Xrotation
							JOINT LeftHand
							{
								OFFSET 3.483560 -0.000000 -0.000000
								CHANNELS 3 Zrotation Yrotation Xrotation
								JOINT LeftFingerBase
								{
									OFFSET 0.000000 0.000000 0.000000
									CHANNELS 3 Zrotation Yrotation Xrotation
									JOINT LeftHandIndex1
									{
										OFFSET 0.715260 -0.000000 -0.000000
										CHANNELS 3 Zrotation Yrotation Xrotation
										End Site
										{
											OFFSET 0.000000 0.000000 0.000000
										}
									}
								}
								JOINT LThumb
								{
									OFFSET 0.000000 0.000000 0.000000
									CHANNELS 3 Zrotation Yrotation Xrotation
									End Site
									{
										OFFSET 0.000000 0.000000 0.000000
									}
								}
							}
						}
					}
				}
				JOINT RightShoulder
				{
					OFFSET 0.000000 0.000000 0.000000
					CHANNELS 3 Zrotation Yrotation Xrotation
					JOINT RightArm
					{
						OFFSET -3.136600 1.374050 -0.404650
						CHANNELS 3 Zrotation Yrotation Xrotation
						JOINT RightForeArm
						{
							OFFSET -5.241900 -0.000000 -0.000000
							CHANNELS 3 Zrotation Yrotation Xrotation
							JOINT RightHand
							{
								OFFSET -3.444170 -0.000000 -0.000000
								CHANNELS 3 Zrotation Yrotation Xrotation
								JOINT RightFingerBase
								{
									OFFSET 0.000000 0.000000 0.000000
									CHANNELS 3 Zrotation Yrotation Xrotation
									JOINT RightHandIndex1
									{
										OFFSET -0.622530 -0.000000 -0.000000
										CHANNELS 3 Zrotation Yrotation Xrotation
										End Site
										{
											OFFSET 0.000000 0.000000 0.000000
										}
									}
								}
								JOINT RThumb
								{
									OFFSET 0.000000 0.000000 0.000000
									CHANNELS 3 Zrotation Yrotation Xrotation
									End Site
									{
										OFFSET 0.000000 0.000000 0.000000
									}
								}
							}
						}
					}
				}
			}
		}
	}
}
MOTION
Frames: 11
Frame Time: 0.008333
0.324707 17.225337 0.938893 -178.564073 -78.811128 -161.842822 -11.591771 3.527937 3.477658 -9.863579 17.666369 -23.318613 -2.753309 -1.265586 5.776696 2.137405 13.536452 -3.757181 1.210200 0.000000 -49.221499 8.907526 -2.623087 5.197956 5.396027 -4.630811 -21.580038 3.162852 1.816783 3.348699 -0.192976 -1.976341 0.906574 -0.991900 -0.000001 -70.399699 0.854173 -4.042870 -11.558483 -0.036648 -4.531205 -4.931535 -7.170370 -4.517833 -0.907062 13.662589 -13.407079 -8.926541 -3.928857 -0.306660 -0.231054 0.000000 0.000000 0.000000 15.194706 0.438986 -1.699229 -88.886478 4.844658 8.397097 177.708511 -51.280210 179.744301 23.291086 -40.035401 -9.244982 -0.481571 2.026072 -0.000000 0.000000 0.000000 0.000000 0.000000 0.000000 0.000000 6.774253 -8.586332 -1.651908 80.682632 4.590586 26.832446 -177.778888 48.712558 179.699146 -40.913290 41.768209 -17.355227 0.948322 -2.008452 -0.000000 0.000000 0.000000 0.000000 0.000000 0.000000 0.000000 
0.308318 17.232632 0.968464 -178.353316 -81.387612 -161.667878 -11.506680 3.515283 3.935046 -9.453833 15.997708 -24.062544 -2.718686 -1.287579 5.944579 1.994028 12.565032 -3.416846 1.230100 0.000001 -49.920900 8.970199 -2.707690 5.084903 5.881597 -5.929015 -21.239059 3.224701 1.943191 2.215370 -0.290962 -2.777116 1.431502 -1.193000 0.000000 -70.248600 0.813388 -3.867072 -11.887740 -0.084094 -4.364671 -4.982632 -7.319918 -4.345656 -0.885415 13.577989 -12.874393 -8.971524 -4.023303 -0.314304 -0.251514 0.000000 0.000000 0.000000 15.766813 0.711387 -1.639293 -89.241187 4.352140 11.129805 177.523062 -50.406908 179.735473 23.928993 -41.348428 -9.858147 -0.502768 2.127997 -0.000000 0.000000 0.000000 0.000000 0.000000 0.000000 0.000000 6.664989 -7.930156 -1.613494 81.464422 4.568091 26.336272 -177.568237 47.660603 179.694295 -42.907996 43.477265 -19.051800 0.968732 -2.073189 -0.000000 0.000000 0.000000 0.000000 0.000000 0.000000 0.000000 
0.294236 17.242263 0.998037 -178.811626 -84.111540 -160.809729 -11.412863 3.504397 4.415229 -9.059004 14.180192 -24.807540 -2.679908 -1.318164 6.051537 1.843710 11.614427 -2.925438 1.276700 0.000000 -50.692000 9.049399 -2.808287 4.993764 6.287577 -7.219308 -20.849456 3.272855 2.077142 0.913742 -0.395381 -3.647237 2.072076 -1.433000 0.000001 -70.097201 0.716194 -3.655132 -12.271295 -0.148497 -4.153563 -5.045945 -7.471811 -4.129260 -0.879320 13.367012 -12.268065 -8.911182 -4.115899 -0.322549 -0.244837 0.000000 0.000000 0.000000 16.281625 0.929988 -1.616268 -89.242616 3.484281 13.952745 177.384999 -49.734035 179.726919 24.574657 -42.437574 -10.439220 -0.526282 2.224465 -0.000000 0.000000 0.000000 0.000000 0.000000 0.000000 0.000000 6.413812 -7.277153 -1.566641 82.252801 4.691929 25.754280 -177.373504 46.615984 179.691732 -45.036174 45.603051 -21.106552 0.976833 -2.145130 -0.000000 0.000000 0.000000 0.000000 0.000000 0.000000 0.000000 
0.283145 17.254138 1.027213 173.524766 -87.157496 -152.750192 -11.417086 3.394619 4.883405 -8.733995 12.170663 -25.474794 -2.627402 -1.388409 6.098315 1.675720 10.693964 -2.264208 1.346800 -0.000001 -51.496200 9.048820 -3.011262 4.935227 6.534299 -8.546411 -20.416678 3.294959 2.183406 -0.547223 -0.524601 -4.602774 2.792849 -1.711600 0.000000 -69.960100 0.369348 -3.513173 -12.688285 -0.243650 -3.968310 -5.115633 -7.602274 -3.940457 -0.903390 13.014914 -11.561451 -8.708933 -4.203682 -0.331379 -0.201299 0.000000 0.000000 0.000000 16.703620 1.045973 -1.623478 -88.937565 2.229267 16.780194 177.317651 -49.252066 179.718737 25.249131 -43.317780 -10.996439 -0.553382 2.315279 -0.000000 0.000000 0.000000 0.000000 0.000000 0.000000 0.000000 6.013193 -6.652246 -1.523223 82.973662 4.964922 25.012275 -177.204473 45.628748 179.691716 -47.144166 48.060203 -23.440548 0.967664 -2.219323 -0.000000 0.000000 0.000000 0.000000 0.000000 0.000000 0.000000 
0.275384 17.267923 1.056109 -168.583176 -89.631975 -170.263165 -10.869805 3.631697 5.420520 -8.183145 10.201872 -26.171362 -2.610230 -1.372435 6.015702 1.560353 9.952897 -1.551571 1.432800 0.000000 -52.289600 9.587527 -2.897163 4.824776 6.932410 -9.682428 -19.850184 3.300327 2.365086 -2.024491 -0.598532 -5.516445 3.693716 -2.035800 0.000000 -69.845300 0.731067 -2.973297 -13.104848 -0.281264 -3.512905 -5.211386 -7.731512 -3.478176 -0.983328 12.523650 -10.731674 -8.361406 -4.281168 -0.339957 -0.117780 0.000000 0.000000 0.000000 16.959830 1.263651 -1.651463 -88.417848 0.642785 19.507978 177.302044 -48.915416 179.711075 25.978153 -44.009233 -11.541309 -0.584478 2.398523 -0.000000 0.000000 0.000000 0.000000 0.000000 0.000000 0.000000 5.436625 -5.845539 -1.494317 83.502091 5.434339 24.039842 -177.095968 44.762413 179.692996 -49.064130 50.692928 -25.901724 0.938897 -2.289787 -0.000000 0.000000 0.000000 0.000000 0.000000 0.000000 0.000000 
0.263663 17.279283 1.099038 5.409497 -86.533559 16.397974 -10.846198 3.622450 6.263932 -7.396351 6.931515 -27.458678 -2.462249 -1.389474 6.378318 1.465159 9.338532 -0.877930 1.530200 0.000000 -52.921500 9.577420 -3.043550 4.654177 7.632825 -11.727416 -19.533863 3.419685 2.558350 -3.826451 -0.693322 -6.538676 4.765319 -2.436200 0.000000 -69.745600 0.621933 -2.862847 -13.831922 -0.303369 -3.390447 -5.347217 -7.700880 -3.370881 -1.044992 11.773148 -9.768979 -7.890167 -4.306327 -0.345118 0.004545 0.000000 0.000000 0.000000 16.898703 1.349005 -1.651163 -87.886524 -1.371487 22.204940 177.395212 -48.779454 179.707180 26.771988 -44.543231 -12.086854 -0.625900 2.479968 -0.000000 0.000000 0.000000 0.000000 0.000000 0.000000 0.000000 4.432545 -5.179657 -1.557879 83.670920 5.913803 22.703980 -176.951607 43.960293 179.692920 -50.654898 53.313695 -28.290506 0.887480 -2.344060 -0.000000 0.000000 0.000000 0.000000 0.000000 0.000000 0.000000 
0.266087 17.296599 1.125903 6.512521 -83.674129 15.541286 -10.631398 3.635726 6.701418 -7.035913 4.788502 -27.796871 -2.420728 -1.431761 6.121060 1.326776 8.744228 0.095279 1.640800 -0.000000 -53.617000 9.828839 -3.115237 4.517083 7.619776 -12.983321 -18.854147 3.374655 2.647732 -5.316428 -0.790332 -7.438347 5.728384 -2.799599 0.000000 -69.740300 0.280964 -2.481012 -14.145750 -0.423165 -2.971896 -5.438912 -7.718762 -2.955923 -1.248399 11.043612 -8.629935 -7.183150 -4.344930 -0.352472 0.184056 0.000000 0.000000 0.000000 16.773488 1.446165 -1.688097 -87.034621 -3.646750 24.566367 177.581024 -48.741263 179.700152 27.674800 -44.943019 -12.653208 -0.667862 2.550702 -0.000000 0.000000 0.000000 0.000000 0.000000 0.000000 0.000000 3.587208 -4.282535 -1.587679 83.550836 6.577916 20.929133 -176.895968 43.411443 179.694863 -51.867730 55.712313 -30.424555 0.830620 -2.385106 -0.000000 0.000000 0.000000 0.000000 0.000000 0.000000 0.000000 
0.273120 17.315237 1.151027 7.422370 -80.869374 14.805814 -10.417118 3.628607 7.093523 -6.708006 2.653789 -27.958514 -2.383020 -1.476192 5.770185 1.198378 8.270118 1.122008 1.758500 -0.000000 -54.214400 10.091348 -3.184554 4.351563 7.491415 -14.208514 -18.091843 3.303327 2.708274 -6.755625 -0.887783 -8.320797 6.718789 -3.181099 -0.000000 -69.751300 -0.146937 -2.061346 -14.375520 -0.556332 -2.501039 -5.527146 -7.685007 -2.491776 -1.499482 10.245493 -7.344059 -6.334522 -4.351125 -0.357833 0.402082 0.000000 0.000000 0.000000 16.398863 1.613468 -1.723910 -86.104122 -6.287453 26.694196 177.882259 -48.863665 179.694222 28.621443 -45.271789 -13.227944 -0.713092 2.615262 -0.000000 0.000000 0.000000 0.000000 0.000000 0.000000 0.000000 2.638344 -3.279437 -1.648897 82.936097 7.260440 18.639006 -176.846888 43.006830 179.695905 -52.732450 57.696568 -32.156237 0.772153 -2.403891 -0.000000 0.000000 0.000000 0.000000 0.000000 0.000000 0.000000 
0.285379 17.335201 1.173737 8.211329 -78.169426 14.078802 -10.206723 3.600638 7.429974 -6.424230 0.603567 -27.905799 -2.354272 -1.521606 5.331713 1.077750 7.896227 2.174479 1.878800 0.000000 -54.689400 10.340825 -3.233406 4.108084 7.289284 -15.423394 -17.871163 3.198161 2.614784 -6.730576 -0.880759 -9.060585 6.939978 -3.547300 -0.000001 -69.841700 -0.638134 -1.613900 -14.463631 -0.696908 -1.990519 -5.604592 -7.596878 -1.991025 -1.799809 9.411672 -5.923301 -5.368211 -4.320805 -0.360910 0.652573 0.000000 0.000000 0.000000 15.765741 1.821941 -1.745913 -85.133959 -9.171594 28.540176 178.267693 -49.089894 179.688899 29.638634 -45.536364 -13.823763 -0.761355 2.672549 -0.000000 0.000000 0.000000 0.000000 0.000000 0.000000 0.000000 1.629763 -2.158621 -1.725566 81.749983 7.919075 15.785839 -176.806349 42.761622 179.696568 -53.431578 59.200231 -33.521693 0.719875 -2.398577 -0.000000 0.000000 0.000000 0.000000 0.000000 0.000000 0.000000 
0.302163 17.355898 1.194426 8.840659 -75.610319 13.421342 -10.009313 3.548300 7.706722 -6.179199 -1.315489 -27.684162 -2.336364 -1.565611 4.836784 0.965168 7.602095 3.214637 1.996700 -0.000001 -55.034600 10.565404 -3.263061 3.810281 7.040087 -16.602106 -18.017343 3.078199 2.415417 -5.677409 -0.785804 -9.685309 6.630324 -3.895500 0.000000 -69.975400 -1.147122 -1.134298 -14.425695 -0.835953 -1.444076 -5.668265 -7.454664 -1.456813 -2.112456 8.567987 -4.408144 -4.345535 -4.248084 -0.361142 0.919348 0.000000 0.000000 0.000000 14.865659 2.121392 -1.755738 -84.170233 -12.273340 30.109170 178.728296 -49.418704 179.684943 30.674629 -45.784958 -14.429334 -0.810007 2.722646 -0.000000 0.000000 0.000000 0.000000 0.000000 0.000000 0.000000 0.583577 -0.934968 -1.803607 79.949195 8.499850 12.367605 -176.770415 42.648475 179.697555 -54.186091 60.194721 -34.626765 0.680288 -2.370269 -0.000000 0.000000 0.000000 0.000000 0.000000 0.000000 0.000000 
0.323424 17.377038 1.213069 9.327468 -73.238363 12.830360 -9.834007 3.471174 7.911455 -5.972350 -3.057746 -27.313031 -2.329034 -1.604723 4.300001 0.861113 7.370088 4.216007 2.107900 0.000000 -55.251701 10.769960 -3.285653 3.487499 6.752086 -17.758964 -18.011952 2.967401 2.217454 -4.761363 -0.689001 -10.229232 6.458960 -4.216900 0.000000 -70.164801 -1.634717 -0.624361 -14.271337 -0.965325 -0.870509 -5.714853 -7.258326 -0.897128 -2.407431 7.728719 -2.845147 -3.322892 -4.134147 -0.358587 1.187372 0.000000 0.000000 0.000000 13.714055 2.524138 -1.752928 -83.249559 -15.510691 31.396393 179.237364 -49.820986 179.682835 31.681987 -46.043624 -15.029525 -0.856445 2.765218 -0.000000 0.000000 0.000000 0.000000 0.000000 0.000000 0.000000 -0.466787 0.368827 -1.865829 77.529569 8.984990 8.421733 -176.750571 42.669299 179.700171 -55.206002 60.728854 -35.632708 0.656356 -2.321680 -0.000000 0.000000 0.000000 0.000000 0.000000 0.000000 0.000000 
